<?xml version="1.0" encoding="UTF-8" standalone="no"?>
<!-- Generator: Adobe Illustrator 25.4.1, SVG Export Plug-In . SVG Version: 6.00 Build 0)  -->

<svg
   version="1.1"
   id="Layer_1"
   x="0px"
   y="0px"
   viewBox="0 0 3.7795276 3.7795275"
   xml:space="preserve"
   sodipodi:docname="reemo3dp.svg"
   width="1mm"
   height="1mm"
   inkscape:version="1.3.2 (091e20ef0f, 2023-11-25, custom)"
   xmlns:inkscape="http://www.inkscape.org/namespaces/inkscape"
   xmlns:sodipodi="http://sodipodi.sourceforge.net/DTD/sodipodi-0.dtd"
   xmlns="http://www.w3.org/2000/svg"
   xmlns:svg="http://www.w3.org/2000/svg"><defs
   id="defs1" /><sodipodi:namedview
   id="namedview1"
   pagecolor="#ffffff"
   bordercolor="#000000"
   borderopacity="0.25"
   inkscape:showpageshadow="2"
   inkscape:pageopacity="0.0"
   inkscape:pagecheckerboard="0"
   inkscape:deskcolor="#d1d1d1"
   showgrid="false"
   inkscape:zoom="128"
   inkscape:cx="2.6835937"
   inkscape:cy="2.2070312"
   inkscape:window-width="2560"
   inkscape:window-height="1011"
   inkscape:window-x="0"
   inkscape:window-y="0"
   inkscape:window-maximized="1"
   inkscape:current-layer="g1"
   inkscape:document-units="mm" />
<style
   type="text/css"
   id="style1">
	.st0{fill-rule:evenodd;clip-rule:evenodd;fill:#D02C3B;}
</style>
<g
   id="g1"
   transform="matrix(0.0054744,0,0,0.0054744,-3.3445838,-1.1047339)">
	<path
   id="path1"
   class="st0"
   d="M 955.95054 201.8 L 640.91888 374.83551 L 640.91888 719.12266 L 955.59376 892.15817 L 1271.339 719.8362 L 1270.9822 375.19228 L 955.95054 201.8 z M 947.03118 459.74778 C 965.81004 459.74778 980.14418 465.22793 990.91441 475.44584 C 999.75152 484.0068 1005.1854 495.60004 1005.1854 507.19875 C 1005.1854 521.2829 997.85109 531.78349 981.28151 541.44908 C 1000.8889 550.83851 1011.2505 564.48144 1011.2505 581.05102 C 1011.2505 596.79213 1003.1804 611.97708 990.20086 621.36651 C 977.77368 630.47978 963.12743 634.21038 938.82537 634.21038 C 904.02925 634.21038 881.02794 625.1042 881.02794 611.02006 C 881.02794 603.01143 887.45151 596.74909 896.01246 596.74909 C 899.60254 596.74909 900.95065 597.19846 905.64537 599.96006 C 912.2732 604.37861 920.4376 605.66844 938.11182 605.66844 C 956.89069 605.66844 966.6091 603.10076 973.78925 596.74909 C 978.2078 593.15901 981.28151 586.85038 981.28151 581.05102 C 981.28151 571.66159 973.64872 562.83157 960.94538 557.8607 C 955.42218 555.65142 952.32288 555.20205 939.8957 554.64973 C 930.23011 554.09741 924.91118 549.45771 924.91118 541.44908 C 924.91118 533.44045 931.41536 527.17811 940.25247 527.17811 L 951.31247 527.17811 C 964.29198 527.17811 975.21635 517.96898 975.21635 507.19875 C 975.21635 495.60004 963.75001 488.28972 945.24731 488.28972 C 930.33468 488.28972 923.04506 490.95 914.20795 500.06327 C 911.72251 502.82486 908.00389 504.70133 903.8615 504.70133 C 895.85286 504.70133 889.23375 498.08222 889.23375 490.07359 C 889.23375 474.05632 916.37745 459.74778 947.03118 459.74778 z M 1139.6893 463.67229 C 1140.9492 463.62051 1142.5323 463.67229 1144.3273 463.67229 L 1177.5073 463.67229 L 1177.5073 601.74393 L 1180.7183 601.74393 C 1188.4507 601.74393 1190.8813 602.30823 1193.919 604.24135 C 1197.7853 607.00294 1199.9841 611.59634 1199.9841 616.0149 C 1199.9841 620.98577 1197.2672 625.7404 1192.8486 628.502 C 1190.3632 629.8828 1187.3461 630.28587 1180.7183 630.28587 L 1147.5383 630.28587 L 1147.5383 622.08006 C 1134.0064 630.64101 1123.2401 633.85361 1107.2228 633.85361 C 1086.2347 633.85361 1070.254 628.24654 1057.2744 616.37167 C 1044.2949 604.4968 1037.6518 589.09234 1037.6518 571.41812 C 1037.6518 554.02005 1044.2949 538.6962 1057.2744 526.82134 C 1070.254 514.94647 1085.9585 509.3394 1107.2228 509.3394 C 1122.9639 509.3394 1136.768 513.46109 1147.5383 521.46972 L 1147.5383 492.21423 L 1144.3273 492.21423 C 1136.871 492.21423 1134.1644 491.29316 1131.1267 489.36004 C 1127.2604 486.59844 1125.0615 482.63798 1125.0615 477.94326 C 1125.0615 472.97239 1127.7784 468.57454 1132.197 465.81294 C 1134.2682 464.57022 1135.9094 463.82763 1139.6893 463.67229 z M 816.09503 509.69617 C 817.72286 509.55378 819.36387 509.69617 821.08987 509.69617 C 831.03162 509.69617 840.43793 512.78186 849.27504 519.68585 C 855.07439 524.38057 857.12407 527.91562 857.12407 532.8865 C 857.12407 540.89513 850.14818 547.51424 842.13955 547.51424 C 837.99716 547.51424 835.14133 546.38564 830.72278 542.5194 C 826.85654 539.20549 824.32317 537.88134 820.7331 537.88134 C 812.44831 537.88134 801.26685 544.75591 776.13632 564.63941 L 776.13632 601.74393 L 813.59761 601.74393 C 821.33008 601.74393 824.11728 602.38884 827.15503 604.59812 C 831.02127 607.35972 833.2202 611.59634 833.2202 616.0149 C 833.2202 625.68049 826.57712 630.28587 813.59761 630.28587 L 731.53953 630.28587 C 718.83619 630.28587 712.27373 625.40433 712.27373 616.0149 C 712.27373 611.32018 714.99065 606.37001 719.40921 603.88457 C 722.17081 602.22762 724.35938 601.74393 731.53953 601.74393 L 746.52405 601.74393 L 746.52405 541.44908 L 737.96147 541.44908 C 725.25812 541.44908 718.33889 536.21077 718.33889 526.82134 C 718.33889 521.85046 721.41259 517.17645 725.83115 514.69101 C 727.76427 513.31021 732.9906 512.55037 737.96147 512.55037 L 776.13632 512.55037 L 776.13632 528.60521 C 794.98422 515.55666 804.70021 510.69294 816.09503 509.69617 z M 1102.9415 537.88134 C 1092.2678 538.56095 1084.4917 541.58838 1077.9673 547.87102 C 1071.3395 554.22269 1067.6209 562.85717 1067.6209 571.41812 C 1067.6209 580.25523 1071.3395 588.97032 1077.9673 595.32199 C 1085.4237 602.22598 1094.5194 605.31167 1107.2228 605.31167 C 1131.2487 605.31167 1147.5383 591.49716 1147.5383 571.06134 C 1147.5383 562.77655 1143.8196 553.94653 1137.1919 547.87102 C 1129.4594 540.69086 1120.8352 537.88134 1107.5796 537.88134 C 1105.9226 537.88134 1104.4663 537.78425 1102.9415 537.88134 z " />
</g>
</svg>
